<svg xmlns="http://www.w3.org/2000/svg" fill="none" viewBox="0 0 715 183">
  <path fill="#5E4DD9" fill-opacity=".48" d="M246 64a8 8 0 0 0-8-8H8a8 8 0 0 0-8 8v57a8 8 0 0 0 8 8h230a8 8 0 0 0 8-8V64Z" opacity=".64"/>
  <path stroke="#BDB7EB" stroke-width="2" d="M238 57H8a7 7 0 0 0-7 7v57a7 7 0 0 0 7 7h230a7 7 0 0 0 7-7V64a7 7 0 0 0-7-7Z" opacity=".64"/>
  <path stroke="url(#a)" stroke-width="2" d="M20 69h188a7 7 0 0 1 7 7v33a7 7 0 0 1-7 7H20a7 7 0 0 1-7-7V76a7 7 0 0 1 7-7Z" opacity=".64"/>
  <path fill="#5E4DD9" fill-opacity=".48" d="M378 8a8 8 0 0 1 8-8h230a8 8 0 0 1 8 8v57a8 8 0 0 1-8 8H386a8 8 0 0 1-8-8V8Z" opacity=".64"/>
  <path stroke="#BDB7EB" stroke-width="2" d="M386 1h230a7 7 0 0 1 7 7v57a7 7 0 0 1-7 7H386a7 7 0 0 1-7-7V8a7 7 0 0 1 7-7Z" opacity=".64"/>
  <path stroke="url(#b)" stroke-width="2" d="M403 13h185a7 7 0 0 1 7 7v33a7 7 0 0 1-7 7H403a7 7 0 0 1-7-7V20a7 7 0 0 1 7-7Z" opacity=".64"/>
  <path fill="#4F3AA4" d="M246 76h12v31h-12zm12 5h12v21h-12z"/>
  <path fill="#5E4DD9" fill-opacity=".48" d="M378 21h-12v31h12zm-12 5h-12v21h12z"/>
  <path stroke="url(#c)" stroke-width="3" d="M270 93c5 0 34.498 4.164 44-28.5C322 37 340.5 37 354 37"/>
  <path stroke="url(#d)" stroke-width="3" d="M270 94.594c5 0 55.307-3.587 106.5 0C416 97.364 397.5 147 445 147"/>
  <path fill="#fff" d="M81.5 99V85h4.58c1.093 0 1.993.187 2.7.56.72.373 1.253.88 1.6 1.52.36.627.54 1.34.54 2.14 0 .907-.233 1.713-.7 2.42-.453.693-1.153 1.2-2.1 1.52L91.06 99H88.6l-2.68-5.54h-2.3V99H81.5Zm2.12-7.46h2.34c.96 0 1.66-.213 2.1-.64.453-.427.68-.987.68-1.68 0-.707-.22-1.267-.66-1.68-.44-.427-1.153-.64-2.14-.64h-2.32v4.64Zm14.372 7.7c-.947 0-1.793-.213-2.54-.64a4.572 4.572 0 0 1-1.76-1.8c-.426-.787-.64-1.707-.64-2.76 0-1.053.213-1.967.64-2.74a4.538 4.538 0 0 1 1.76-1.82c.747-.427 1.6-.64 2.56-.64s1.807.213 2.54.64a4.403 4.403 0 0 1 1.74 1.82c.427.773.64 1.687.64 2.74 0 1.053-.213 1.973-.64 2.76a4.566 4.566 0 0 1-1.76 1.8c-.733.427-1.58.64-2.54.64Zm0-2.02a2.93 2.93 0 0 0 1.4-.34 2.473 2.473 0 0 0 1.02-1.04c.267-.48.4-1.08.4-1.8 0-.733-.133-1.333-.4-1.8a2.473 2.473 0 0 0-1.02-1.04 2.822 2.822 0 0 0-1.38-.34c-.507 0-.973.113-1.4.34-.426.227-.773.573-1.04 1.04-.253.467-.38 1.067-.38 1.8 0 1.093.274 1.9.82 2.42.56.507 1.22.76 1.98.76Zm11.992 2.02c-.946 0-1.793-.213-2.54-.64a4.579 4.579 0 0 1-1.76-1.8c-.426-.787-.64-1.707-.64-2.76 0-1.053.214-1.967.64-2.74a4.545 4.545 0 0 1 1.76-1.82c.747-.427 1.6-.64 2.56-.64s1.807.213 2.54.64a4.403 4.403 0 0 1 1.74 1.82c.427.773.64 1.687.64 2.74 0 1.053-.213 1.973-.64 2.76a4.566 4.566 0 0 1-1.76 1.8c-.733.427-1.58.64-2.54.64Zm0-2.02a2.93 2.93 0 0 0 1.4-.34 2.473 2.473 0 0 0 1.02-1.04c.267-.48.4-1.08.4-1.8 0-.733-.133-1.333-.4-1.8a2.473 2.473 0 0 0-1.02-1.04 2.82 2.82 0 0 0-1.38-.34 2.94 2.94 0 0 0-1.4.34c-.426.227-.773.573-1.04 1.04-.253.467-.38 1.067-.38 1.8 0 1.093.274 1.9.82 2.42.56.507 1.22.76 1.98.76Zm6.493 1.78v-9.92h1.76l.18 1.16h.1c.173-.413.44-.747.8-1 .36-.267.786-.4 1.28-.4.48 0 .9.12 1.26.36s.626.587.8 1.04h.08c.173-.4.446-.733.82-1 .373-.267.833-.4 1.38-.4.733 0 1.286.24 1.66.72.386.48.58 1.153.58 2.02V99h-2.04v-7c0-.4-.087-.713-.26-.94-.16-.24-.42-.36-.78-.36-.36 0-.66.14-.9.42-.227.28-.34.673-.34 1.18V99h-2.06v-7c0-.4-.08-.713-.24-.94-.16-.24-.42-.36-.78-.36-.36 0-.66.14-.9.42-.24.28-.36.673-.36 1.18V99h-2.04Zm14.352 4.4 2.36-5.22h-.58l-3.86-9.1h2.3l2.96 7.26 3.14-7.26h2.22l-6.3 14.32h-2.24ZM461.12 44V30h5c1.453 0 2.553.333 3.3 1 .747.667 1.12 1.527 1.12 2.58 0 .813-.213 1.473-.64 1.98-.427.507-.92.873-1.48 1.1v.14a4.11 4.11 0 0 1 1.72 1.18c.48.533.72 1.24.72 2.12 0 .72-.18 1.38-.54 1.98-.347.587-.86 1.053-1.54 1.4s-1.513.52-2.5.52h-5.16Zm2.12-8.16h2.62c.813 0 1.433-.16 1.86-.48.427-.333.64-.833.64-1.5 0-1.32-.847-1.98-2.54-1.98h-2.58v3.96Zm0 6.2H466c.867 0 1.533-.187 2-.56.467-.373.7-.92.7-1.64 0-.707-.247-1.247-.74-1.62-.493-.387-1.16-.58-2-.58h-2.72v4.4ZM473.352 44v-1.84h3.32V32.1c0-.44-.213-.66-.64-.66h-2.4V29.6h2.78c.774 0 1.36.207 1.76.62.414.4.62.987.62 1.76v10.18h3.34V44h-8.78Zm15.752.24c-1.2 0-2.113-.367-2.74-1.1-.613-.747-.92-1.827-.92-3.24v-5.82h2.12v5.56c0 .813.174 1.453.52 1.92.36.453.907.68 1.64.68.734 0 1.347-.247 1.84-.74.494-.493.74-1.207.74-2.14v-5.28h2.12V44h-1.84l-.18-1.48h-.1c-.266.48-.68.887-1.24 1.22-.56.333-1.213.5-1.96.5Zm12.993 0c-.96 0-1.807-.213-2.54-.64a4.609 4.609 0 0 1-1.72-1.82c-.414-.773-.62-1.673-.62-2.7 0-1.04.2-1.953.6-2.74.413-.787.986-1.4 1.72-1.84.746-.44 1.606-.66 2.58-.66.96 0 1.786.22 2.48.66.693.427 1.226 1 1.6 1.72.386.72.58 1.513.58 2.38v.44c0 .147-.007.313-.02.5h-7.46c.066.92.366 1.62.9 2.1.533.467 1.16.7 1.88.7.626 0 1.12-.127 1.48-.38a2.31 2.31 0 0 0 .82-1.08h2.14a4.588 4.588 0 0 1-1.5 2.4c-.76.64-1.734.96-2.92.96Zm0-8.56c-.654 0-1.234.2-1.74.6-.507.387-.834.933-.98 1.64h5.28c-.054-.667-.314-1.207-.78-1.62-.467-.413-1.06-.62-1.78-.62Zm11.952 8.56c-1.307 0-2.347-.307-3.12-.92-.774-.613-1.214-1.427-1.32-2.44h2.18c.08.467.313.847.7 1.14.4.293.926.44 1.58.44.626 0 1.106-.127 1.44-.38.346-.267.52-.573.52-.92 0-.507-.207-.853-.62-1.04-.4-.187-.994-.327-1.78-.42a7.16 7.16 0 0 1-1.86-.46c-.547-.24-.98-.56-1.3-.96-.32-.413-.48-.927-.48-1.54 0-.867.34-1.567 1.02-2.1.68-.533 1.626-.8 2.84-.8 1.213 0 2.153.273 2.82.82.666.547 1.053 1.293 1.16 2.24h-2.04c-.054-.4-.26-.713-.62-.94-.36-.24-.807-.36-1.34-.36-.547 0-.98.107-1.3.32-.32.2-.48.467-.48.8 0 .72.773 1.16 2.32 1.32.733.08 1.386.22 1.96.42.573.187 1.026.487 1.36.9.333.4.5.967.5 1.7.013.6-.16 1.14-.52 1.62-.347.48-.834.86-1.46 1.14-.614.28-1.334.42-2.16.42Zm7.872-.24V29.6h2.12v8.64l3.8-4.16h2.66l-4.14 4.4v.16l4.68 5.36h-2.58l-4.42-5.1V44h-2.12Zm12.892 4.4 2.36-5.22h-.58l-3.86-9.1h2.3l2.96 7.26 3.14-7.26h2.22l-6.3 14.32h-2.24Zm-95.582-19.782c-2.312 1.736-4.785 5.107-5.948 7.244a.322.322 0 0 1-.567 0c-1.163-2.137-3.636-5.508-5.948-7.244-1.819-1.366-4.768-2.423-4.768.941 0 .672.385 5.643.611 6.451.606 2.169 2.454 3.089 4.437 3.195.19.01.222.261.043.324-2.988 1.048-3.518 3.196-1.424 5.344 3.826 3.894 5.814.647 6.733-1.514.224-.525.977-.525 1.2 0 .92 2.161 2.907 5.408 6.733 1.514 2.093-2.148 1.564-4.296-1.424-5.344a.165.165 0 0 1 .043-.324c1.983-.106 3.83-1.026 4.437-3.195.226-.807.611-5.779.611-6.451 0-3.364-2.949-2.307-4.769-.941Z"/>
  <path fill="#5E4DD9" fill-opacity=".09" d="M469 118a8 8 0 0 1 8-8h230a8 8 0 0 1 8 8v57a8 8 0 0 1-8 8H477a8 8 0 0 1-8-8v-57Z" opacity=".64"/>
  <path stroke="#BDB7EB" stroke-opacity=".52" stroke-width="2" d="M477 111h230a7 7 0 0 1 7 7v57a7 7 0 0 1-7 7H477a7 7 0 0 1-7-7v-57a7 7 0 0 1 7-7Z" opacity=".64"/>
  <path stroke="url(#e)" stroke-width="2" d="M494 123h184a7 7 0 0 1 7 7v33a7 7 0 0 1-7 7H494a7 7 0 0 1-7-7v-33a7 7 0 0 1 7-7Z" opacity=".64"/>
  <path fill="#5E4DD9" fill-opacity=".48" d="M469 131.267h-12v31h12zm-12 5h-12v21h12z"/>
  <path fill="#fff" d="M551.86 154.267v-14h2.24l2.9 6.32 2.9-6.32h2.24v14h-2.02v-9.96l-2.28 5h-1.68l-2.28-4.98v9.94h-2.02Zm16.232.24c-.786 0-1.446-.133-1.98-.4-.533-.28-.933-.646-1.2-1.1a3.016 3.016 0 0 1-.4-1.52c0-.973.354-1.733 1.06-2.28.72-.546 1.734-.82 3.04-.82h2.56v-.22c0-1.493-.693-2.24-2.08-2.24-.573 0-1.06.127-1.46.38-.386.24-.646.634-.78 1.18h-2.12c.107-1.04.554-1.86 1.34-2.46.8-.613 1.807-.92 3.02-.92 1.467 0 2.534.36 3.2 1.08.667.72 1 1.714 1 2.98v6.1h-1.8l-.18-1.46h-.14c-.293.467-.66.867-1.1 1.2-.44.334-1.1.5-1.98.5Zm.4-1.78c.867 0 1.514-.26 1.94-.78.44-.533.68-1.206.72-2.02h-2.32c-.76 0-1.3.127-1.62.38-.306.24-.46.58-.46 1.02 0 .44.154.787.46 1.04.32.24.747.36 1.28.36Zm12.572 1.78c-1.306 0-2.346-.306-3.12-.92-.773-.613-1.213-1.426-1.32-2.44h2.18c.08.467.314.847.7 1.14.4.294.927.44 1.58.44.627 0 1.107-.126 1.44-.38.347-.266.52-.573.52-.92 0-.506-.206-.853-.62-1.04-.4-.186-.993-.326-1.78-.42a7.16 7.16 0 0 1-1.86-.46c-.546-.24-.98-.56-1.3-.96-.32-.413-.48-.926-.48-1.54 0-.866.34-1.566 1.02-2.1.68-.533 1.627-.8 2.84-.8 1.214 0 2.154.274 2.82.82.667.547 1.054 1.294 1.16 2.24h-2.04c-.053-.4-.26-.713-.62-.94-.36-.24-.806-.36-1.34-.36-.546 0-.98.107-1.3.32-.32.2-.48.467-.48.8 0 .72.774 1.16 2.32 1.32.734.08 1.387.22 1.96.42.574.187 1.027.487 1.36.9.334.4.5.967.5 1.7.014.6-.16 1.14-.52 1.62-.346.48-.833.86-1.46 1.14-.613.28-1.333.42-2.16.42Zm12.993-.24c-.974 0-1.747-.233-2.32-.7-.574-.48-.86-1.326-.86-2.54v-4.88h-2.5v-1.8h1.48c.68 0 1.08-.333 1.2-1l.3-1.6h1.64v2.6h3.92v1.8h-3.92v4.84c0 .52.113.887.34 1.1.24.2.646.3 1.22.3h2.32v1.88h-2.82Zm10.912.24c-.947 0-1.794-.213-2.54-.64a4.556 4.556 0 0 1-1.76-1.8c-.427-.786-.64-1.706-.64-2.76 0-1.053.213-1.966.64-2.74a4.538 4.538 0 0 1 1.76-1.82c.746-.426 1.6-.64 2.56-.64s1.806.214 2.54.64a4.421 4.421 0 0 1 1.74 1.82c.426.774.64 1.687.64 2.74 0 1.054-.214 1.974-.64 2.76a4.57 4.57 0 0 1-1.76 1.8c-.734.427-1.58.64-2.54.64Zm0-2.02c.506 0 .973-.113 1.4-.34.426-.226.766-.573 1.02-1.04.266-.48.4-1.08.4-1.8 0-.733-.134-1.333-.4-1.8-.254-.466-.594-.813-1.02-1.04a2.833 2.833 0 0 0-1.38-.34c-.507 0-.974.114-1.4.34-.427.227-.774.574-1.04 1.04-.254.467-.38 1.067-.38 1.8 0 1.094.273 1.9.82 2.42.56.507 1.22.76 1.98.76Zm11.452 2.02c-.827 0-1.567-.193-2.22-.58-.653-.4-1.173-.986-1.56-1.76-.373-.773-.56-1.726-.56-2.86 0-1.133.193-2.086.58-2.86.387-.773.907-1.353 1.56-1.74.667-.4 1.407-.6 2.22-.6.76 0 1.387.147 1.88.44.493.28.86.64 1.1 1.08v-5.76h2.12v14.4h-1.82l-.18-1.46h-.12c-.267.52-.647.934-1.14 1.24-.48.307-1.1.46-1.86.46Zm.44-2.02c.76 0 1.387-.266 1.88-.8.507-.533.76-1.326.76-2.38 0-1.066-.253-1.86-.76-2.38-.493-.533-1.12-.8-1.88-.8-.76 0-1.393.267-1.9.8-.493.534-.74 1.334-.74 2.4 0 1.054.247 1.847.74 2.38.507.52 1.14.78 1.9.78Zm12.092 2.02c-.947 0-1.793-.213-2.54-.64a4.563 4.563 0 0 1-1.76-1.8c-.427-.786-.64-1.706-.64-2.76 0-1.053.213-1.966.64-2.74a4.545 4.545 0 0 1 1.76-1.82c.747-.426 1.6-.64 2.56-.64s1.807.214 2.54.64a4.409 4.409 0 0 1 1.74 1.82c.427.774.64 1.687.64 2.74 0 1.054-.213 1.974-.64 2.76a4.563 4.563 0 0 1-1.76 1.8c-.733.427-1.58.64-2.54.64Zm0-2.02c.507 0 .973-.113 1.4-.34.427-.226.767-.573 1.02-1.04.267-.48.4-1.08.4-1.8 0-.733-.133-1.333-.4-1.8-.253-.466-.593-.813-1.02-1.04a2.828 2.828 0 0 0-1.38-.34c-.507 0-.973.114-1.4.34-.427.227-.773.574-1.04 1.04-.253.467-.38 1.067-.38 1.8 0 1.094.273 1.9.82 2.42.56.507 1.22.76 1.98.76Zm7.552 1.78v-9.92h1.84l.18 1.48h.1c.267-.48.68-.886 1.24-1.22.56-.333 1.207-.5 1.94-.5 1.214 0 2.127.367 2.74 1.1.614.734.92 1.814.92 3.24v5.82h-2.12v-5.56c0-.826-.173-1.466-.52-1.92-.346-.453-.893-.68-1.64-.68-.733 0-1.346.247-1.84.74-.48.494-.72 1.207-.72 2.14v5.28h-2.12Z" opacity=".19"/>
  <path fill="#fff" d="M51.34 104.39c-1.432 0-2.789-.204-4.073-.61a9.472 9.472 0 0 1-3.341-1.853c-.96-.829-1.715-1.894-2.268-3.195-.536-1.3-.805-2.845-.805-4.633 0-1.593.269-3.097.805-4.511A11.448 11.448 0 0 1 44 85.832a10.875 10.875 0 0 1 3.585-2.56c1.398-.618 2.942-.927 4.633-.927 1.61 0 3.024.244 4.243.732 1.22.488 2.235 1.162 3.048 2.024a8.39 8.39 0 0 1 1.853 2.95 9.815 9.815 0 0 1 .634 3.536c0 1.3-.162 2.414-.487 3.341-.31.927-.724 1.69-1.244 2.292-.52.585-1.105 1.016-1.756 1.293a4.836 4.836 0 0 1-1.95.414c-1.057 0-1.789-.244-2.195-.731-.407-.488-.626-1.146-.658-1.975l.39-.196c-.293 1.008-.797 1.756-1.512 2.244-.7.471-1.553.707-2.56.707-1.122 0-2.025-.35-2.708-1.049-.666-.715-1-1.95-1-3.706 0-1.268.204-2.398.61-3.39.407-.991.976-1.772 1.707-2.34.748-.57 1.626-.854 2.634-.854.699 0 1.317.195 1.853.585.537.39.91.984 1.122 1.78l-.341-.17c0-.846.162-1.488.487-1.927.325-.439.756-.658 1.293-.658.487 0 .853.122 1.097.365.26.228.39.545.39.952 0 .308-.049.74-.146 1.292a46.85 46.85 0 0 1-.366 1.829c-.13.65-.244 1.3-.341 1.95a11.782 11.782 0 0 0-.147 1.732c0 .406.057.675.171.805.13.13.285.195.463.195.407 0 .78-.195 1.122-.585.358-.407.642-.951.854-1.634.21-.683.317-1.471.317-2.366 0-2.178-.643-3.828-1.927-4.95-1.268-1.138-2.991-1.707-5.17-1.707-1.544 0-2.918.325-4.12.976-1.187.65-2.122 1.617-2.805 2.901-.683 1.269-1.024 2.862-1.024 4.78 0 1.723.309 3.13.927 4.219.634 1.073 1.487 1.87 2.56 2.389 1.073.504 2.284.756 3.633.756.846 0 1.61-.073 2.293-.219.682-.146 1.195-.22 1.536-.22 1.024 0 1.536.488 1.536 1.463 0 .732-.471 1.285-1.414 1.659-.927.374-2.187.561-3.78.561Zm-.342-8.267c.374 0 .731-.138 1.073-.415.357-.276.642-.666.853-1.17.212-.52.317-1.114.317-1.78 0-.846-.122-1.488-.366-1.927-.243-.455-.601-.682-1.073-.682-.39 0-.74.178-1.048.536-.309.341-.561.797-.756 1.366a5.751 5.751 0 0 0-.268 1.78c0 .796.114 1.382.341 1.755.228.358.537.537.927.537Z"/>
  <path fill="#fff" d="M531.417 138h-12.834a4.685 4.685 0 0 0-3.241 1.289A4.313 4.313 0 0 0 514 142.4v13.2c0 1.167.483 2.286 1.342 3.111a4.685 4.685 0 0 0 3.241 1.289h10.084a.937.937 0 0 0 .648-.258.862.862 0 0 0 .268-.622.862.862 0 0 0-.268-.622.937.937 0 0 0-.648-.258h-10.084a2.81 2.81 0 0 1-1.944-.773 2.588 2.588 0 0 1-.806-1.867v-.88h15.584c.602 0 1.198-.114 1.754-.335a4.597 4.597 0 0 0 1.487-.954c.425-.408.763-.893.993-1.427.23-.534.349-1.106.349-1.684v-7.92a4.313 4.313 0 0 0-1.342-3.111 4.685 4.685 0 0 0-3.241-1.289Zm0 11.44a.863.863 0 0 1-.269.622.937.937 0 0 1-.648.258.937.937 0 0 1-.648-.258.863.863 0 0 1-.269-.622v-3.52c0-.467-.193-.914-.537-1.245a1.87 1.87 0 0 0-1.296-.515 1.87 1.87 0 0 0-1.296.515 1.727 1.727 0 0 0-.537 1.245v3.52a.863.863 0 0 1-.269.622.937.937 0 0 1-.648.258.937.937 0 0 1-.648-.258.863.863 0 0 1-.269-.622v-3.52c0-.467-.193-.914-.537-1.245a1.87 1.87 0 0 0-1.296-.515 1.87 1.87 0 0 0-1.296.515 1.727 1.727 0 0 0-.537 1.245v3.52a.863.863 0 0 1-.269.622.937.937 0 0 1-.648.258.937.937 0 0 1-.648-.258.863.863 0 0 1-.269-.622v-3.52a3.43 3.43 0 0 1 .652-2 3.65 3.65 0 0 1 1.721-1.289 3.805 3.805 0 0 1 2.178-.123 3.69 3.69 0 0 1 1.866 1.088 3.69 3.69 0 0 1 1.866-1.088 3.805 3.805 0 0 1 2.178.123 3.65 3.65 0 0 1 1.721 1.289 3.43 3.43 0 0 1 .652 2v3.52Z" opacity=".2"/>
  <defs>
    <linearGradient id="a" x1="12" x2="216" y1="92.5" y2="92.5" gradientUnits="userSpaceOnUse">
      <stop stop-color="#9388E3"/>
      <stop offset="1" stop-color="#322973" stop-opacity="0"/>
    </linearGradient>
    <linearGradient id="b" x1="395" x2="596" y1="36.5" y2="36.5" gradientUnits="userSpaceOnUse">
      <stop stop-color="#9388E3"/>
      <stop offset="1" stop-color="#322973" stop-opacity="0"/>
    </linearGradient>
    <linearGradient id="c" x1="312" x2="312" y1="37" y2="93.172" gradientUnits="userSpaceOnUse">
      <stop stop-color="#BDB7EB"/>
      <stop offset="1" stop-color="#5E4DD9" stop-opacity=".48"/>
    </linearGradient>
    <linearGradient id="d" x1="312" x2="312" y1="156.411" y2="94.403" gradientUnits="userSpaceOnUse">
      <stop stop-color="#5E4DD9" stop-opacity="0"/>
      <stop offset="1" stop-color="#BDB7EB" stop-opacity=".32"/>
    </linearGradient>
    <linearGradient id="e" x1="486" x2="686" y1="146.5" y2="146.5" gradientUnits="userSpaceOnUse">
      <stop stop-color="#9388E3"/>
      <stop offset="1" stop-color="#322973" stop-opacity="0"/>
    </linearGradient>
  </defs>
</svg>
